<svg width="21" height="21" viewBox="0 0 21 21" fill="none" xmlns="http://www.w3.org/2000/svg">
<g clip-path="url(#clip0_53_1265)">
<path d="M21.0183 10.0749C20.9555 7.3278 19.8283 4.76769 17.8444 2.86639C15.8633 0.967814 13.2618 -0.0489256 10.5194 0.00170309C7.77599 -0.0492461 5.17566 0.967974 3.19458 2.86639C1.2106 4.76769 0.0834733 7.3278 0.020668 10.0749L0.0205078 10.0835V10.0922C0.0349274 12.892 1.23351 15.5537 3.3149 17.4193V19.9576C3.3149 20.4503 3.65889 20.8795 4.13281 20.9782C4.20298 20.9927 4.27364 21 4.34381 21C4.53463 21 4.72209 20.9466 4.88695 20.8436L6.927 19.5692C8.07752 19.972 9.27835 20.1761 10.4989 20.1761H10.5139C10.5816 20.1774 10.6485 20.178 10.7158 20.178C13.3862 20.1779 15.9107 19.1647 17.8444 17.3116C19.8283 15.4103 20.9555 12.8502 21.0183 10.1031L21.0186 10.089L21.0183 10.0749ZM16.9922 16.4224C15.2452 18.0965 12.9502 18.9916 10.5316 18.9447L10.5183 18.9445C10.5117 18.9445 10.5053 18.9445 10.4989 18.9445C9.36967 18.9445 8.25953 18.7473 7.19937 18.3585C6.93565 18.2617 6.64822 18.2912 6.41094 18.4394L4.54649 19.6041V17.2693C4.54649 17.0089 4.43322 16.7611 4.23567 16.5893C2.35456 14.954 1.26748 12.5871 1.25226 10.0944C1.30946 7.67868 2.30168 5.42795 4.04677 3.75576C5.79362 2.08149 8.08938 1.18683 10.5072 1.23345L10.5194 1.23377L10.5316 1.23345C12.9518 1.18587 15.2452 2.08149 16.9922 3.75576C18.7357 5.42666 19.7277 7.67548 19.7865 10.0892C19.7279 12.5027 18.7357 14.7515 16.9922 16.4224Z" fill="black"/>
<path d="M12.6211 5.91376C11.9948 5.91376 11.4221 6.11131 10.9185 6.50079C10.7775 6.60974 10.6442 6.73231 10.5194 6.86737C10.3946 6.73215 10.2615 6.60974 10.1205 6.50079C9.61674 6.11131 9.04396 5.91376 8.41783 5.91376C7.58695 5.91376 6.82239 6.24685 6.26483 6.85167C5.72009 7.44255 5.42017 8.24572 5.42017 9.11314C5.42017 10.9886 6.85796 12.2138 8.84802 13.9097C9.17486 14.1883 9.54544 14.5043 9.92932 14.8398C10.0926 14.9829 10.3022 15.0615 10.5194 15.0615C10.7367 15.0615 10.9462 14.9829 11.1093 14.8401C11.4963 14.5016 11.8654 14.1871 12.1911 13.9096C14.181 12.2138 15.6188 10.9886 15.6188 9.11314C15.6188 8.24556 15.3187 7.44255 14.774 6.85151C14.2164 6.24685 13.4519 5.91376 12.6211 5.91376ZM11.3923 12.9721C11.1261 13.199 10.8312 13.4504 10.5194 13.7205C10.2095 13.4518 9.91378 13.1998 9.64686 12.9723C7.77905 11.3807 6.65176 10.42 6.65176 9.11314C6.65176 7.97287 7.39453 7.14535 8.41783 7.14535C8.76967 7.14535 9.08017 7.25317 9.36696 7.47492C9.63116 7.67935 9.81765 7.94179 9.92772 8.1262C10.0514 8.33352 10.2781 8.46218 10.5194 8.46218C10.7607 8.46218 10.9876 8.33352 11.1112 8.12604C11.2213 7.94179 11.4078 7.67935 11.672 7.47492C11.9588 7.25317 12.2691 7.14535 12.6211 7.14535C13.6444 7.14535 14.3872 7.97287 14.3872 9.11314C14.3872 10.42 13.2599 11.3807 11.3923 12.9721Z" fill="black"/>
</g>
<defs>
<clipPath id="clip0_53_1265">
<rect width="20.959" height="21" fill="white"/>
</clipPath>
</defs>
</svg>
